<mxfile host="65bd71144e">
    <diagram id="WtZMbwxggyxlWj1TEP_S" name="Page-1">
        <mxGraphModel dx="515" dy="428" grid="1" gridSize="10" guides="1" tooltips="1" connect="1" arrows="1" fold="1" page="1" pageScale="1" pageWidth="850" pageHeight="1100" math="0" shadow="0">
            <root>
                <mxCell id="0"/>
                <mxCell id="1" parent="0"/>
                <mxCell id="6" style="edgeStyle=none;html=1;" parent="1" edge="1">
                    <mxGeometry relative="1" as="geometry">
                        <mxPoint x="430" y="194.49547679655376" as="sourcePoint"/>
                        <mxPoint x="550" y="195.62386919913843" as="targetPoint"/>
                    </mxGeometry>
                </mxCell>
                <mxCell id="11" style="edgeStyle=none;html=1;" parent="1" edge="1">
                    <mxGeometry relative="1" as="geometry">
                        <mxPoint x="730" y="190.5" as="targetPoint"/>
                        <mxPoint x="617.5" y="190.5" as="sourcePoint"/>
                    </mxGeometry>
                </mxCell>
                <mxCell id="20" style="edgeStyle=none;html=1;fontFamily=Helvetica;fontSize=12;fontColor=rgb(240, 240, 240);" parent="1" edge="1">
                    <mxGeometry relative="1" as="geometry">
                        <mxPoint x="765" y="240" as="sourcePoint"/>
                        <mxPoint x="765" y="280" as="targetPoint"/>
                    </mxGeometry>
                </mxCell>
                <mxCell id="15" value="Amazon S3" style="sketch=0;outlineConnect=0;fontColor=#232F3E;gradientColor=none;strokeColor=#ffffff;fillColor=#232F3E;dashed=0;verticalLabelPosition=middle;verticalAlign=bottom;align=center;html=1;whiteSpace=wrap;fontSize=10;fontStyle=1;spacing=3;shape=mxgraph.aws4.productIcon;prIcon=mxgraph.aws4.s3;" parent="1" vertex="1">
                    <mxGeometry x="550" y="146" width="80" height="100" as="geometry"/>
                </mxCell>
                <mxCell id="19" value="collectData&lt;span style=&quot;white-space: pre&quot;&gt;&#9;&lt;/span&gt;" style="sketch=0;outlineConnect=0;fontColor=#232F3E;gradientColor=none;strokeColor=#ffffff;fillColor=#232F3E;dashed=0;verticalLabelPosition=middle;verticalAlign=bottom;align=center;html=1;whiteSpace=wrap;fontSize=10;fontStyle=1;spacing=3;shape=mxgraph.aws4.productIcon;prIcon=mxgraph.aws4.lambda;fontFamily=Helvetica;" parent="1" vertex="1">
                    <mxGeometry x="350" y="146" width="80" height="100" as="geometry"/>
                </mxCell>
                <mxCell id="21" value="classifyAndTag&lt;br&gt;" style="sketch=0;outlineConnect=0;fontColor=#232F3E;gradientColor=none;strokeColor=#ffffff;fillColor=#232F3E;dashed=0;verticalLabelPosition=middle;verticalAlign=bottom;align=center;html=1;whiteSpace=wrap;fontSize=10;fontStyle=1;spacing=3;shape=mxgraph.aws4.productIcon;prIcon=mxgraph.aws4.lambda;fontFamily=Helvetica;" vertex="1" parent="1">
                    <mxGeometry x="730" y="140" width="80" height="110" as="geometry"/>
                </mxCell>
            </root>
        </mxGraphModel>
    </diagram>
</mxfile>